<mxfile host="app.diagrams.net" modified="2023-08-24T23:38:32.073Z" agent="Mozilla/5.0 (Windows NT 10.0; Win64; x64) AppleWebKit/537.36 (KHTML, like Gecko) Chrome/116.0.0.0 Safari/537.36" etag="kKwlOt6On-V1ZuM5ir-a" version="21.6.9" type="device">
  <diagram name="Página-1" id="D9l1XS7NlEC8tRxrIU18">
    <mxGraphModel dx="1434" dy="790" grid="1" gridSize="10" guides="1" tooltips="1" connect="1" arrows="1" fold="1" page="1" pageScale="1" pageWidth="827" pageHeight="1169" math="0" shadow="0">
      <root>
        <mxCell id="0" />
        <mxCell id="1" parent="0" />
        <mxCell id="q2NuulS6U0oWX4dzJ29O-1" value="" style="rounded=0;whiteSpace=wrap;html=1;" vertex="1" parent="1">
          <mxGeometry x="189" y="70" width="450" height="740" as="geometry" />
        </mxCell>
        <mxCell id="q2NuulS6U0oWX4dzJ29O-5" style="rounded=0;orthogonalLoop=1;jettySize=auto;html=1;entryX=0;entryY=0.5;entryDx=0;entryDy=0;" edge="1" parent="1" source="q2NuulS6U0oWX4dzJ29O-2" target="q2NuulS6U0oWX4dzJ29O-3">
          <mxGeometry relative="1" as="geometry" />
        </mxCell>
        <mxCell id="q2NuulS6U0oWX4dzJ29O-8" style="edgeStyle=none;rounded=0;orthogonalLoop=1;jettySize=auto;html=1;entryX=0;entryY=0.5;entryDx=0;entryDy=0;" edge="1" parent="1" source="q2NuulS6U0oWX4dzJ29O-2" target="q2NuulS6U0oWX4dzJ29O-7">
          <mxGeometry relative="1" as="geometry" />
        </mxCell>
        <mxCell id="q2NuulS6U0oWX4dzJ29O-10" style="edgeStyle=none;rounded=0;orthogonalLoop=1;jettySize=auto;html=1;entryX=0;entryY=0.5;entryDx=0;entryDy=0;" edge="1" parent="1" source="q2NuulS6U0oWX4dzJ29O-2" target="q2NuulS6U0oWX4dzJ29O-9">
          <mxGeometry relative="1" as="geometry" />
        </mxCell>
        <mxCell id="q2NuulS6U0oWX4dzJ29O-12" style="edgeStyle=none;rounded=0;orthogonalLoop=1;jettySize=auto;html=1;entryX=0;entryY=0.5;entryDx=0;entryDy=0;" edge="1" parent="1" source="q2NuulS6U0oWX4dzJ29O-2" target="q2NuulS6U0oWX4dzJ29O-11">
          <mxGeometry relative="1" as="geometry" />
        </mxCell>
        <mxCell id="q2NuulS6U0oWX4dzJ29O-27" style="edgeStyle=none;rounded=0;orthogonalLoop=1;jettySize=auto;html=1;entryX=0;entryY=0.5;entryDx=0;entryDy=0;" edge="1" parent="1" source="q2NuulS6U0oWX4dzJ29O-2" target="q2NuulS6U0oWX4dzJ29O-26">
          <mxGeometry relative="1" as="geometry" />
        </mxCell>
        <mxCell id="q2NuulS6U0oWX4dzJ29O-2" value="Cliente" style="shape=umlActor;verticalLabelPosition=bottom;verticalAlign=top;html=1;outlineConnect=0;" vertex="1" parent="1">
          <mxGeometry x="70" y="330" width="40" height="80" as="geometry" />
        </mxCell>
        <mxCell id="q2NuulS6U0oWX4dzJ29O-3" value="Cadastrar" style="ellipse;whiteSpace=wrap;html=1;fillColor=#ffe6cc;strokeColor=#d79b00;" vertex="1" parent="1">
          <mxGeometry x="354" y="170" width="120" height="80" as="geometry" />
        </mxCell>
        <mxCell id="q2NuulS6U0oWX4dzJ29O-6" value="Sistema VW automóveis" style="text;html=1;strokeColor=none;fillColor=none;align=center;verticalAlign=middle;whiteSpace=wrap;rounded=0;fontFamily=Tahoma;fontSize=31;" vertex="1" parent="1">
          <mxGeometry x="209" y="36" width="410" height="30" as="geometry" />
        </mxCell>
        <mxCell id="q2NuulS6U0oWX4dzJ29O-7" value="Buscar modelos de carros" style="ellipse;whiteSpace=wrap;html=1;fillColor=#ffe6cc;strokeColor=#d79b00;" vertex="1" parent="1">
          <mxGeometry x="353.5" y="260" width="120" height="80" as="geometry" />
        </mxCell>
        <mxCell id="q2NuulS6U0oWX4dzJ29O-9" value="Visualizar opções de veículos" style="ellipse;whiteSpace=wrap;html=1;fillColor=#ffe6cc;strokeColor=#d79b00;" vertex="1" parent="1">
          <mxGeometry x="354" y="350" width="120" height="80" as="geometry" />
        </mxCell>
        <mxCell id="q2NuulS6U0oWX4dzJ29O-11" value="Fazer oferta por um carro" style="ellipse;whiteSpace=wrap;html=1;fillColor=#ffe6cc;strokeColor=#d79b00;" vertex="1" parent="1">
          <mxGeometry x="270" y="440" width="120" height="80" as="geometry" />
        </mxCell>
        <mxCell id="q2NuulS6U0oWX4dzJ29O-16" style="edgeStyle=none;rounded=0;orthogonalLoop=1;jettySize=auto;html=1;entryX=1;entryY=0.5;entryDx=0;entryDy=0;" edge="1" parent="1" source="q2NuulS6U0oWX4dzJ29O-14" target="q2NuulS6U0oWX4dzJ29O-15">
          <mxGeometry relative="1" as="geometry" />
        </mxCell>
        <mxCell id="q2NuulS6U0oWX4dzJ29O-18" style="edgeStyle=none;rounded=0;orthogonalLoop=1;jettySize=auto;html=1;entryX=1;entryY=0.5;entryDx=0;entryDy=0;" edge="1" parent="1" source="q2NuulS6U0oWX4dzJ29O-14" target="q2NuulS6U0oWX4dzJ29O-17">
          <mxGeometry relative="1" as="geometry" />
        </mxCell>
        <mxCell id="q2NuulS6U0oWX4dzJ29O-20" style="edgeStyle=none;rounded=0;orthogonalLoop=1;jettySize=auto;html=1;entryX=1;entryY=0.5;entryDx=0;entryDy=0;" edge="1" parent="1" source="q2NuulS6U0oWX4dzJ29O-14" target="q2NuulS6U0oWX4dzJ29O-19">
          <mxGeometry relative="1" as="geometry" />
        </mxCell>
        <mxCell id="q2NuulS6U0oWX4dzJ29O-28" style="edgeStyle=none;rounded=0;orthogonalLoop=1;jettySize=auto;html=1;entryX=1;entryY=0.5;entryDx=0;entryDy=0;" edge="1" parent="1" source="q2NuulS6U0oWX4dzJ29O-14" target="q2NuulS6U0oWX4dzJ29O-26">
          <mxGeometry relative="1" as="geometry" />
        </mxCell>
        <mxCell id="q2NuulS6U0oWX4dzJ29O-29" style="edgeStyle=none;rounded=0;orthogonalLoop=1;jettySize=auto;html=1;entryX=1;entryY=0.5;entryDx=0;entryDy=0;" edge="1" parent="1" source="q2NuulS6U0oWX4dzJ29O-14" target="q2NuulS6U0oWX4dzJ29O-3">
          <mxGeometry relative="1" as="geometry" />
        </mxCell>
        <mxCell id="q2NuulS6U0oWX4dzJ29O-30" style="edgeStyle=none;rounded=0;orthogonalLoop=1;jettySize=auto;html=1;entryX=1;entryY=0.5;entryDx=0;entryDy=0;" edge="1" parent="1" source="q2NuulS6U0oWX4dzJ29O-14" target="q2NuulS6U0oWX4dzJ29O-7">
          <mxGeometry relative="1" as="geometry" />
        </mxCell>
        <mxCell id="q2NuulS6U0oWX4dzJ29O-32" style="edgeStyle=none;rounded=0;orthogonalLoop=1;jettySize=auto;html=1;entryX=1;entryY=0.5;entryDx=0;entryDy=0;" edge="1" parent="1" source="q2NuulS6U0oWX4dzJ29O-14" target="q2NuulS6U0oWX4dzJ29O-9">
          <mxGeometry relative="1" as="geometry" />
        </mxCell>
        <mxCell id="q2NuulS6U0oWX4dzJ29O-14" value="Funcionário" style="shape=umlActor;verticalLabelPosition=bottom;verticalAlign=top;html=1;outlineConnect=0;" vertex="1" parent="1">
          <mxGeometry x="710" y="330" width="40" height="80" as="geometry" />
        </mxCell>
        <mxCell id="q2NuulS6U0oWX4dzJ29O-15" value="Analisar uma oferta" style="ellipse;whiteSpace=wrap;html=1;fillColor=#ffe6cc;strokeColor=#d79b00;" vertex="1" parent="1">
          <mxGeometry x="420" y="440" width="120" height="80" as="geometry" />
        </mxCell>
        <mxCell id="q2NuulS6U0oWX4dzJ29O-17" value="Adicionar veículo no sistema" style="ellipse;whiteSpace=wrap;html=1;fillColor=#ffe6cc;strokeColor=#d79b00;" vertex="1" parent="1">
          <mxGeometry x="420" y="530" width="120" height="80" as="geometry" />
        </mxCell>
        <mxCell id="q2NuulS6U0oWX4dzJ29O-19" value="Remover veículo do sistema" style="ellipse;whiteSpace=wrap;html=1;fillColor=#ffe6cc;strokeColor=#d79b00;" vertex="1" parent="1">
          <mxGeometry x="420" y="620" width="120" height="80" as="geometry" />
        </mxCell>
        <mxCell id="q2NuulS6U0oWX4dzJ29O-23" style="edgeStyle=none;rounded=0;orthogonalLoop=1;jettySize=auto;html=1;entryX=1;entryY=0.5;entryDx=0;entryDy=0;" edge="1" parent="1" source="q2NuulS6U0oWX4dzJ29O-21" target="q2NuulS6U0oWX4dzJ29O-22">
          <mxGeometry relative="1" as="geometry" />
        </mxCell>
        <mxCell id="q2NuulS6U0oWX4dzJ29O-21" value="Sistema" style="shape=umlActor;verticalLabelPosition=bottom;verticalAlign=top;html=1;outlineConnect=0;" vertex="1" parent="1">
          <mxGeometry x="710" y="710" width="40" height="80" as="geometry" />
        </mxCell>
        <mxCell id="q2NuulS6U0oWX4dzJ29O-22" value="Emitir nota fiscal" style="ellipse;whiteSpace=wrap;html=1;fillColor=#ffe6cc;strokeColor=#d79b00;" vertex="1" parent="1">
          <mxGeometry x="354" y="710" width="120" height="80" as="geometry" />
        </mxCell>
        <mxCell id="q2NuulS6U0oWX4dzJ29O-26" value="Logar" style="ellipse;whiteSpace=wrap;html=1;fillColor=#ffe6cc;strokeColor=#d79b00;" vertex="1" parent="1">
          <mxGeometry x="354" y="80" width="120" height="80" as="geometry" />
        </mxCell>
      </root>
    </mxGraphModel>
  </diagram>
</mxfile>
